<svg aria-hidden="true" style="position: absolute; width: 0; height: 0; overflow: hidden;" version="1.1" xmlns="http://www.w3.org/2000/svg" xmlns:xlink="http://www.w3.org/1999/xlink">
	<defs>

		<symbol id="icon-Vector" viewBox="0 0 22 32">
<path d="M20.385 18.071l-15.075 13.189c-1.776 1.556-4.559 0.291-4.559-2.071v-26.378c-0-0.529 0.151-1.046 0.438-1.491s0.694-0.797 1.176-1.016c0.481-0.218 1.016-0.294 1.539-0.216s1.013 0.304 1.41 0.652l15.070 13.189c0.295 0.258 0.532 0.576 0.694 0.934s0.246 0.745 0.246 1.137-0.084 0.78-0.246 1.137c-0.162 0.357-0.399 0.675-0.694 0.934h0.003z"></path>
</symbol>
<symbol id="icon-loon-icon" viewBox="0 0 32 32">
			<path d="M8.005 19.324l1.305 1.305 6.69-6.69 6.69 6.69 1.305-1.305-7.995-7.952z">
			</path>
		</symbol>
	</defs>
</svg>